<?xml version="1.0" encoding="utf-8"?>
<!-- Generator: Adobe Illustrator 16.0.0, SVG Export Plug-In . SVG Version: 6.00 Build 0)  -->
<!DOCTYPE svg PUBLIC "-//W3C//DTD SVG 1.1//EN" "http://www.w3.org/Graphics/SVG/1.1/DTD/svg11.dtd">
<svg version="1.1" id="Layer_1" xmlns="http://www.w3.org/2000/svg" xmlns:xlink="http://www.w3.org/1999/xlink" x="0px" y="0px"
	 width="183px" height="66px" viewBox="0 0 183 66" enable-background="new 0 0 183 66" xml:space="preserve">
<g>
	<g>
		<g>
			<path fill="#FF741F" d="M71.223,31.018c2.584,0,4.718-2.108,4.718-4.768c0-2.561-2.133-4.719-4.718-4.719
				c-2.559,0-4.692,2.158-4.692,4.719C66.531,28.86,68.664,31.018,71.223,31.018z"/>
		</g>
		<g>
			<g enable-background="new    ">
				<path fill="#FF741F" d="M65.752,38.094c-1.556-3.864-2.334-7.779-2.334-11.895c0-3.614,0.578-7.076,1.758-10.389
					c1.355-3.815,3.488-7.679,6.324-11.443h2.96c-1.857,3.162-3.112,5.42-3.664,6.775c-0.929,2.108-1.682,4.267-2.184,6.575
					c-0.653,2.812-1.004,5.622-1.004,8.534c0,7.276,2.309,14.555,6.851,21.832H71.5C69.266,45.271,67.333,41.908,65.752,38.094z"/>
			</g>
		</g>
		<g>
			<g enable-background="new    ">
				<path fill="#FF741F" d="M62.214,41.607v-5.421L85.627,26.5l-23.414-9.586v-5.421L91.75,23.891v5.119L62.214,41.607z"/>
			</g>
		</g>
	</g>
	<g>
		<g>
			<path fill="#808080" d="M110.572,31.018c2.609,0,4.769-2.108,4.769-4.768c0-2.561-2.159-4.719-4.769-4.719
				c-2.561,0-4.717,2.158-4.717,4.719C105.855,28.86,108.012,31.018,110.572,31.018z"/>
		</g>
		<g>
			<g enable-background="new    ">
				<path fill="#808080" d="M110.322,48.082h-2.961c4.566-7.277,6.774-14.556,6.774-21.832c0-2.912-0.251-5.722-0.904-8.534
					c-0.502-2.308-1.255-4.467-2.209-6.575c-0.601-1.355-1.806-3.614-3.661-6.775h2.961c2.859,3.764,4.916,7.628,6.322,11.443
					c1.205,3.313,1.757,6.775,1.757,10.389c0,4.116-0.753,8.031-2.358,11.895C114.486,41.908,112.58,45.271,110.322,48.082z"/>
			</g>
		</g>
		<g>
			<g enable-background="new    ">
				<path fill="#808080" d="M91.65,29.01v-5.119l29.562-12.398v5.421L97.773,26.5l23.438,9.686v5.421L91.65,29.01z"/>
			</g>
		</g>
	</g>
	<g>
		<polygon fill="#FF741F" points="56.794,0 58.65,0 92.303,0 92.303,2.108 58.273,2.108 50.871,48.333 38.549,22.986 33.631,25.246 
			32.802,23.689 40.254,19.925 50.344,40.354 		"/>
	</g>
	<g>
		<polygon fill="#808080" points="125.83,0 123.972,0 92.303,0 92.303,2.108 124.275,2.108 131.754,48.333 144.049,22.986 
			148.969,25.246 149.771,23.689 142.342,19.925 132.256,40.354 		"/>
	</g>
	<g>
		<path fill="#FF741F" d="M86.468,65.854v-1.715h3.197v1.715H86.468L86.468,65.854z M86.468,61.533v-1.479h2.782v1.479H86.468
			L86.468,61.533z M86.468,57.624v-1.713h3.197v1.713H86.468z M86.468,55.911v1.713h-3.966v6.515h3.966v1.715h-5.772v-9.942H86.468
			L86.468,55.911z M86.468,60.054h-2.782v1.479h2.782V60.054L86.468,60.054z M67.288,65.854v-1.715h0.83v1.715H67.288L67.288,65.854
			z M67.288,57.27l4.883,8.169c0.149,0.18,0.267,0.297,0.385,0.415c0.089,0.061,0.267,0.119,0.473,0.119
			c0.208,0,0.326-0.059,0.475-0.119c0.117-0.118,0.236-0.297,0.355-0.415l5.742-9.527h-1.982l-4.529,7.694l-4.5-7.694h-1.302V57.27
			L67.288,57.27z M67.288,55.911v1.358l-0.798-1.358H67.288L67.288,55.911z M67.288,64.139h-5.89v-8.228h-1.715v9.942h7.605V64.139
			L67.288,64.139z M52.192,65.854v-1.715h1.184c0.475,0,0.918-0.12,1.304-0.296c0.354-0.062,0.709-0.358,1.034-0.654
			c0.267-0.296,0.475-0.649,0.592-0.945c0.15-0.473,0.237-0.888,0.237-1.363c0-0.472-0.087-0.888-0.237-1.301
			c-0.117-0.355-0.384-0.709-0.592-1.006c-0.325-0.296-0.679-0.474-1.034-0.711c-0.386-0.118-0.829-0.238-1.304-0.238h-1.184v-1.713
			h1.184c0.742,0,1.421,0.116,2.013,0.296c0.592,0.295,1.125,0.592,1.569,1.063c0.385,0.417,0.769,0.947,1.006,1.539
			c0.267,0.592,0.325,1.245,0.325,2.013c0,0.712-0.177,1.422-0.415,2.014c-0.207,0.649-0.562,1.124-1.006,1.601
			c-0.413,0.412-0.947,0.825-1.539,1.063c-0.563,0.237-1.242,0.355-1.983,0.355H52.192z M52.192,55.911v1.713H50.95
			c-0.444,0-0.917,0.12-1.242,0.238c-0.446,0.178-0.771,0.415-1.006,0.711c-0.296,0.297-0.474,0.65-0.652,1.006
			c-0.117,0.413-0.207,0.829-0.207,1.301c0,0.476,0.09,0.891,0.207,1.363c0.178,0.296,0.415,0.649,0.652,0.945
			c0.295,0.296,0.561,0.593,1.006,0.654c0.325,0.176,0.769,0.296,1.242,0.296h1.242v1.715H50.95c-0.711,0-1.361-0.118-1.953-0.355
			c-0.592-0.237-1.096-0.65-1.54-1.063c-0.444-0.477-0.769-0.951-1.036-1.601c-0.206-0.592-0.385-1.302-0.385-2.014
			c0-0.768,0.179-1.421,0.385-2.013c0.267-0.592,0.592-1.122,1.036-1.539c0.444-0.471,0.948-0.768,1.54-1.005
			c0.592-0.237,1.242-0.296,1.953-0.296h1.242V55.911z M27.508,65.854v-1.715h3.109v1.715H27.508L27.508,65.854z M27.508,61.533
			v-1.479h2.724v1.479H27.508L27.508,61.533z M27.508,57.624v-1.713h3.109v1.713H27.508L27.508,57.624z M32.274,65.854v-2.072h8.791
			c0.532,0,0.976-0.118,1.272-0.472c0.327-0.238,0.444-0.593,0.444-1.066c0-0.473-0.117-0.888-0.444-1.184
			c-0.296-0.238-0.74-0.355-1.272-0.355h-5.358c-0.562,0-1.125-0.119-1.508-0.237c-0.474-0.178-0.888-0.413-1.155-0.71
			c-0.267-0.236-0.503-0.653-0.74-1.007c-0.09-0.473-0.236-0.947-0.236-1.421c0-0.472,0.146-0.889,0.236-1.302
			c0.177-0.354,0.414-0.771,0.681-1.067c0.326-0.296,0.709-0.471,1.214-0.649c0.383-0.176,0.946-0.296,1.508-0.296h8.524v2.072
			h-8.464c-0.503,0-0.828,0.12-1.095,0.415c-0.236,0.234-0.415,0.651-0.415,1.005c0,0.476,0.179,0.829,0.415,1.066
			c0.207,0.297,0.592,0.413,1.035,0.413h5.358c1.243,0,2.19,0.297,2.723,0.83c0.652,0.592,0.947,1.421,0.947,2.547
			c0,0.472-0.06,0.946-0.237,1.418c-0.148,0.357-0.415,0.771-0.71,1.066c-0.266,0.296-0.682,0.533-1.124,0.709
			c-0.446,0.237-1.066,0.297-1.599,0.297H32.274L32.274,65.854z M10.579,61.889l-1.865,3.434c-0.058,0.176-0.266,0.413-0.442,0.531
			c-0.149,0.061-0.356,0.119-0.533,0.119c-0.504,0-0.83-0.179-1.096-0.65L0.575,54.135h2.428l4.735,9.054l1.834-3.196l-3.078-5.857
			H8.98l4.558,9.054l4.796-9.054h2.249l-6.067,11.246c-0.119,0.176-0.296,0.413-0.504,0.473c-0.207,0.119-0.383,0.178-0.592,0.178
			c-0.236,0-0.442-0.059-0.651-0.178c-0.117-0.06-0.295-0.297-0.383-0.473L10.579,61.889L10.579,61.889z M27.508,55.911v1.713
			h-4.025v6.515h4.025v1.715h-5.8v-9.942H27.508L27.508,55.911z M27.508,60.054h-2.781v1.479h2.781V60.054z"/>
	</g>
	<g>
		<path fill="#808080" d="M154.189,65.854v-1.715h2.898v1.715H154.189L154.189,65.854z M154.189,61.533v-1.479h2.544v1.479H154.189
			L154.189,61.533z M154.189,57.624v-1.713h2.898v1.713H154.189L154.189,57.624z M169.992,65.854l-1.775-6.983l-2.604,6.452
			c-0.118,0.176-0.118,0.413-0.354,0.531c-0.06,0.061-0.238,0.178-0.413,0.178c-0.475,0-0.713-0.237-0.888-0.709l-2.605-6.452
			l-1.775,6.983h-1.538l2.427-9.352c0-0.475,0.296-0.771,0.708-0.771c0.179,0,0.354,0.061,0.533,0.181
			c0.059,0.116,0.237,0.176,0.296,0.412l2.843,7.104l2.9-7.104c0.176-0.354,0.355-0.593,0.71-0.593c0.416,0,0.65,0.297,0.828,0.771
			l2.31,9.352H169.992L169.992,65.854z M172.718,65.854v-1.715h6.865c0.474,0,0.771-0.12,1.066-0.357
			c0.235-0.234,0.356-0.533,0.356-0.946c0-0.472-0.121-0.771-0.356-1.006c-0.296-0.12-0.593-0.296-1.066-0.296h-4.259
			c-0.358,0-0.771-0.061-1.127-0.237c-0.296-0.18-0.593-0.296-0.828-0.533c-0.238-0.296-0.475-0.533-0.592-0.946
			c-0.179-0.296-0.179-0.771-0.179-1.126c0-0.413,0-0.828,0.179-1.184c0.117-0.296,0.354-0.649,0.471-0.828
			c0.356-0.238,0.534-0.472,0.889-0.592c0.296-0.118,0.829-0.176,1.188-0.176h6.685v1.713h-6.685c-0.301,0-0.654,0.12-0.892,0.358
			c-0.118,0.175-0.235,0.53-0.235,0.945c0,0.355,0.117,0.651,0.235,0.829c0.237,0.235,0.591,0.355,0.892,0.355h4.259
			c0.889,0,1.659,0.237,2.072,0.709c0.534,0.475,0.771,1.243,0.771,2.192c0,0.471-0.12,0.829-0.236,1.125
			c-0.061,0.413-0.296,0.709-0.534,0.947c-0.236,0.236-0.532,0.471-0.889,0.649c-0.295,0.118-0.71,0.237-1.184,0.237h-6.865V65.854z
			 M154.189,55.911v1.713h-3.729v6.515h3.729v1.715h-5.33v-9.942H154.189L154.189,55.911z M154.189,60.054h-2.546v1.479h2.546
			V60.054L154.189,60.054z M133.588,65.854v-1.715h1.304c0.354,0,0.59,0,0.827-0.062c0.235-0.059,0.473-0.118,0.652-0.234
			c0.116-0.062,0.296-0.237,0.412-0.358c0.12-0.175,0.12-0.413,0.12-0.649c0-0.472-0.12-0.771-0.356-1.006
			c-0.176-0.178-0.593-0.296-1.065-0.296h-1.833v-1.479h1.833c0.416,0,0.71-0.062,0.947-0.297c0.297-0.178,0.354-0.474,0.354-0.887
			c0-0.297,0-0.534-0.116-0.653c-0.12-0.117-0.238-0.234-0.417-0.414c-0.176-0.059-0.353-0.116-0.592-0.179
			c-0.233-0.059-0.529-0.059-0.767-0.059h-1.243v-1.718h1.776c0.412,0,0.825,0.063,1.242,0.18c0.354,0.06,0.591,0.237,0.946,0.475
			c0.237,0.177,0.475,0.473,0.591,0.827c0.238,0.295,0.238,0.653,0.238,1.065c0,0.355,0,0.592-0.118,0.829
			c-0.061,0.297-0.12,0.414-0.298,0.593c-0.059,0.176-0.234,0.354-0.413,0.473c-0.179,0.119-0.355,0.178-0.473,0.235
			c0.354,0.18,0.769,0.418,0.947,0.771c0.354,0.413,0.413,0.947,0.413,1.48c0,0.412-0.059,0.887-0.177,1.242
			c-0.12,0.417-0.356,0.713-0.591,1.008c-0.238,0.234-0.593,0.472-0.95,0.592c-0.354,0.176-0.709,0.235-1.184,0.235H133.588
			L133.588,65.854z M139.98,65.854v-9.942h1.539v8.228h6.218v1.715H139.98z M133.588,55.911v1.713h-3.315v6.515h3.315v1.715h-4.975
			v-9.942H133.588L133.588,55.911z M133.588,60.054h-2.189v1.479h2.189V60.054L133.588,60.054z M121.748,65.854v-1.715h1.066
			c0.414,0,0.83-0.12,1.185-0.296c0.354-0.062,0.651-0.358,0.889-0.654c0.296-0.296,0.413-0.649,0.591-0.945
			c0.176-0.473,0.176-0.888,0.176-1.363c0-0.472,0-0.888-0.176-1.301c-0.178-0.355-0.295-0.709-0.591-1.006
			c-0.237-0.296-0.534-0.474-0.889-0.711c-0.354-0.118-0.771-0.238-1.185-0.238h-1.066v-1.713h1.066
			c0.651,0,1.244,0.116,1.836,0.296c0.533,0.295,1.004,0.592,1.421,1.063c0.354,0.417,0.65,0.947,0.887,1.539
			c0.238,0.592,0.355,1.245,0.355,2.013c0,0.712-0.117,1.422-0.355,2.014c-0.236,0.649-0.532,1.124-0.887,1.601
			c-0.417,0.412-0.888,0.825-1.421,1.063c-0.534,0.237-1.185,0.355-1.775,0.355H121.748z M95.168,62.539v-1.954h4.383
			c0.651,0,1.184-0.177,1.479-0.593c0.415-0.413,0.591-1.006,0.591-1.656c0-0.649-0.176-1.183-0.591-1.6
			c-0.355-0.354-0.827-0.529-1.479-0.529h-5.742v9.707h-1.894V54.135h7.636c0.593,0,1.184,0.058,1.6,0.293
			c0.531,0.18,1.003,0.416,1.3,0.829c0.355,0.296,0.592,0.771,0.829,1.305c0.121,0.471,0.296,1.063,0.296,1.716
			c0,0.65-0.175,1.243-0.296,1.715c-0.237,0.532-0.474,1.008-0.829,1.363c-0.297,0.415-0.769,0.709-1.3,0.888
			c-0.416,0.179-1.007,0.296-1.6,0.296H95.168L95.168,62.539z M121.748,55.911v1.713h-1.242c-0.417,0-0.711,0.12-1.124,0.238
			c-0.355,0.178-0.651,0.415-0.947,0.711c-0.237,0.297-0.356,0.65-0.533,1.006c-0.179,0.413-0.237,0.829-0.237,1.301
			c0,0.476,0.059,0.891,0.237,1.363c0.177,0.296,0.296,0.649,0.533,0.945c0.238,0.296,0.533,0.593,0.947,0.654
			c0.354,0.176,0.707,0.296,1.124,0.296h1.242v1.715h-1.242c-0.591,0-1.242-0.118-1.775-0.355s-1.008-0.65-1.362-1.063
			c-0.414-0.477-0.708-0.951-0.945-1.601c-0.239-0.592-0.355-1.302-0.355-2.014c0-0.768,0.116-1.421,0.355-2.013
			c0.237-0.592,0.531-1.122,0.945-1.539c0.354-0.471,0.829-0.768,1.362-1.005s1.185-0.296,1.775-0.296h1.242V55.911z
			 M113.225,65.854l-2.31-2.722h-3.493v-1.539h3.909c0.53,0,1.005-0.237,1.303-0.593c0.236-0.296,0.354-0.771,0.354-1.479
			c0-0.593-0.117-1.126-0.472-1.421c-0.237-0.355-0.712-0.534-1.304-0.534h-5.031v8.288h-1.598V55.848h6.629
			c0.592,0,1.066,0.121,1.422,0.239c0.474,0.12,0.77,0.475,1.066,0.712c0.294,0.354,0.471,0.708,0.709,1.184
			c0.116,0.412,0.237,0.945,0.237,1.538c0,0.769-0.18,1.479-0.476,2.072c-0.354,0.533-0.888,0.946-1.421,1.184l2.726,3.077H113.225
			L113.225,65.854z"/>
	</g>
</g>
</svg>
